<svg xmlns="http://www.w3.org/2000/svg" viewBox="690 6136 61.487 61.487"><defs><style>.a{fill:#3180c1}.a,.b,.d,.e,.f{fill-rule:evenodd}.b{fill:#286ba2}.c{fill:#3d566e}.d,.h{fill:#95a5a6}.e{fill:#2c3e50}.f,.g{fill:#ecf0f1}</style></defs><path class="a" d="M751.487 6166.743a30.723 30.723 0 0 1-30.744 30.744 27.14 27.14 0 0 1-8.02-1.146 30.886 30.886 0 0 1-13.748-7.829 31.253 31.253 0 0 1-8.975-21.769 30.786 30.786 0 0 1 52.512-21.768 30.073 30.073 0 0 1 8.588 17.758 28.489 28.489 0 0 1 .387 4.01z"/><path class="b" d="M751.487 6166.743a30.723 30.723 0 0 1-30.744 30.743 27.14 27.14 0 0 1-8.02-1.146l-14.7-14.7v-2.101l.191-.191h3.625v-17.57l-1.719-1.718-.191-.19-2.1-2.1v-1.72a.187.187 0 0 1 .191-.191.187.187 0 0 1 .191-.191.187.187 0 0 1 .191-.191.187.187 0 0 0 .191-.191h.191l21.386-9.548a1.615 1.615 0 0 1 1.337 0l21.387 9.548h.191a.187.187 0 0 1 .191.191l.191.191 7.638 7.065a28.489 28.489 0 0 1 .382 4.01z"/><path class="c" d="M701.839 6155.86h37.809v25.397h-37.809z"/><path class="d" d="M715.015 6159.297v-1.337a.61.61 0 0 1 .573-.573h10.5a.61.61 0 0 1 .573.573v1.337a.61.61 0 0 1-.573.573h-10.5a.61.61 0 0 1-.573-.573z"/><path class="e" d="M697.829 6181.256v-1.91a.61.61 0 0 1 .573-.573h44.874a.506.506 0 0 1 .573.573v1.91a.61.61 0 0 1-.573.573h-44.874q-.573-.286-.573-.573z"/><path class="f" d="M706.613 6153.949h28.261c.191 0 .191 0 .191-.191a.187.187 0 0 0-.191-.191l-14.131-5.918h-.191l-14.13 5.92-.191.19c.191 0 .191.19.382.19z"/><path class="f" d="M698.784 6154.523l21.386-9.548a1.631 1.631 0 0 1 1.337 0l21.387 9.548a1.436 1.436 0 0 1 .955 1.337v.955a.506.506 0 0 1-.573.573h-44.874a.506.506 0 0 1-.573-.573v-.955a1.436 1.436 0 0 1 .955-1.337z"/><path class="d" d="M704.13 6154.905h33.226l-16.613-7.447zM699.929 6159.297v-1.337a.61.61 0 0 1 .573-.573h10.5a.61.61 0 0 1 .573.573v1.337a.61.61 0 0 1-.573.573h-10.5a.61.61 0 0 1-.573-.573zM730.1 6159.297v-1.337a.61.61 0 0 1 .573-.573h10.5a.61.61 0 0 1 .573.573v1.337a.61.61 0 0 1-.573.573h-10.5a.61.61 0 0 1-.573-.573z"/><path class="g" d="M701.839 6159.87h7.638v19.095h-7.638z"/><path class="h" d="M702.603 6159.87h.955v19.095h-.955zM706.04 6159.87h.955v19.095h-.955zM704.321 6159.87h.955v19.095h-.955zM707.759 6159.87h.955v19.095h-.955z"/><g><path class="g" d="M716.924 6159.87h7.638v19.095h-7.638z"/><path class="h" d="M717.688 6159.87h.955v19.095h-.955zM721.125 6159.87h.955v19.095h-.955zM719.406 6159.87h.955v19.095h-.955zM722.844 6159.87h.955v19.095h-.955z"/></g><g><path class="g" d="M732.01 6159.87h7.638v19.095h-7.638z"/><path class="h" d="M732.774 6159.87h.955v19.095h-.955zM736.211 6159.87h.955v19.095h-.955zM734.492 6159.87h.955v19.095h-.955zM737.93 6159.87h.955v19.095h-.955z"/></g></svg>