<svg xmlns="http://www.w3.org/2000/svg" viewBox="691 6022 61.487 61.487"><defs><style>.a{fill:#3180c1}.a,.b,.d,.e,.f,.i{fill-rule:evenodd}.b{fill:#286ba2}.c{fill:#3d566e}.d{fill:#f1c40f}.e,.g{fill:#2c3e50}.f{fill:#3498db}.h{fill:#ecf0f1}.i{fill:#dae1e6}.j{fill:red}</style></defs><path class="a" d="M752.487 6052.744a17.1 17.1 0 0 1-.382 4.392 30.675 30.675 0 0 1-30.361 26.351h-1.91a30.471 30.471 0 0 1-19.859-8.975 30.91 30.91 0 0 1-8.975-21.768 30.744 30.744 0 0 1 61.487 0z"/><path class="b" d="M752.101 6057.136a30.675 30.675 0 0 1-30.358 26.351h-1.91l-21.577-21.577c-.191 0-.191-.191-.382-.382 0-.191-.191-.191-.191-.382a.667.667 0 0 0-.191-.382c0-.191 0-.382-.191-.382v-2.483a.187.187 0 0 1 .191-.191.187.187 0 0 1 .191-.191h.573v-.19l-.382-.382v-2.674h.382v-13.366a.187.187 0 0 1 .191-.191.187.187 0 0 1 .191-.191c.191 0 0-.191.191-.191a.187.187 0 0 1 .191-.191l.191-.191a.187.187 0 0 0 .19-.191.187.187 0 0 0 .191-.191.187.187 0 0 0 .191-.191h33.608a.591.591 0 0 1 .382.191h.382c.191 0 .191 0 .382.191a.591.591 0 0 1 .382.191.667.667 0 0 0 .382.191.591.591 0 0 1 .382.191.187.187 0 0 1 .191.191c.191 0 .191.191.382.191l.191.191c.382.191.573.573.955.955z"/><g transform="translate(697.324 6038.231)"><path class="c" d="M2.459 16.04h43.537v7.829H2.459z"/><path class="d" d="M47.525 18.713h-4.2a6.216 6.216 0 0 0-4.393-1.913 6.954 6.954 0 0 0-4.392 1.719 6.206 6.206 0 0 0-2.1 4.774v.573H16.399V23.3a6.206 6.206 0 0 0-2.1-4.774A6.049 6.049 0 0 0 9.907 16.8a6.954 6.954 0 0 0-4.392 1.719H.932V2.864A2.937 2.937 0 0 1 3.796 0h27.307a17.25 17.25 0 0 1 5.347.764 7.158 7.158 0 0 1 4.01 3.437 36.986 36.986 0 0 1 2.482 7.447 16.713 16.713 0 0 1 3.055.382 1.572 1.572 0 0 1 1.335 1.146c0 2.482.193 4.392.193 5.537z"/><path class="e" d="M32.63 21.769a5.287 5.287 0 0 0-.191 1.719v.573h-16.04v-.573a5.287 5.287 0 0 0-.191-1.719z"/><path class="f" d="M25.756 3.246h-2.482a.411.411 0 0 0-.382.382v16.418a.411.411 0 0 0 .382.382h2.482a.411.411 0 0 0 .382-.382V3.819c.191-.382 0-.573-.382-.573z"/><circle class="g" cx="5.347" cy="5.347" r="5.347" transform="translate(33.394 17.95)"/><circle class="g" cx="5.347" cy="5.347" r="5.347" transform="translate(4.56 17.95)"/><path class="f" d="M38.55 9.738h-5.729a.411.411 0 0 1-.382-.382V3.628a.411.411 0 0 1 .382-.382h1.718a3.91 3.91 0 0 1 3.819 2.1 7.25 7.25 0 0 1 1.146 3.437c.191.192 0 .955-.954.955z"/><circle class="h" cx="2.482" cy="2.482" r="2.482" transform="translate(36.258 20.814)"/><circle class="h" cx="2.482" cy="2.482" r="2.482" transform="translate(7.424 20.814)"/><path class="f" d="M30.529 3.246h-2.482a.411.411 0 0 0-.382.382v16.418a.411.411 0 0 0 .382.382h2.482a.411.411 0 0 0 .382-.382V3.819c.191-.382-.191-.573-.382-.573zM20.791 3.246h-7.638a.411.411 0 0 0-.382.382v5.729a.411.411 0 0 0 .382.382h7.638a.411.411 0 0 0 .382-.382V3.628c.191-.191-.002-.382-.382-.382zM11.052 3.246H3.414a.411.411 0 0 0-.382.382v5.729a.411.411 0 0 0 .382.382h7.638a.411.411 0 0 0 .382-.382V3.628a.411.411 0 0 0-.382-.382z"/><path class="e" d="M45.234 23.87h1.146c3.055 0 2.482-5.347 1.719-5.347h-4.775a6.206 6.206 0 0 1 2.1 4.774.7.7 0 0 0-.19.573zM2.269 23.87h1.145v-.573a6.206 6.206 0 0 1 2.1-4.774H.55c-.762.191-1.146 5.347 1.719 5.347zM39.314 9.357V8.211a.821.821 0 0 1 .764-.764.821.821 0 0 1 .764.764V9.93a.821.821 0 0 1-.764.764.821.821 0 0 1-.764-.764z"/><path class="i" d="M47.715 17.949h-2.673v-2.673h2.482z"/><path class="j" d="M.55 15.467h1.337v2.673H.55z"/><path class="g" d="M3.032 14.131h18.332v2.1H3.032zM32.439 14.131H42.75v2.1H32.439z"/></g></svg>