<svg xmlns="http://www.w3.org/2000/svg" viewBox="691 6255 60.487 60.299"><defs><style>.a{fill:#3180c1}.a,.b,.c,.d,.e,.f{fill-rule:evenodd}.b{fill:#286ba2}.c{fill:#3d566e}.d{fill:#d1d1d1}.e{fill:#2c3e50}.f{fill:#dae1e6}</style></defs><path class="a" d="M751.487 6285.243v1.127a28.883 28.883 0 0 1-8.829 20.1 30.075 30.075 0 0 1-21.415 8.83 25.5 25.5 0 0 1-5.448-.564A29.942 29.942 0 0 1 691 6285.243a30.244 30.244 0 0 1 60.487 0z"/><path class="b" d="M751.295 6286.371a28.883 28.883 0 0 1-8.829 20.1 30.075 30.075 0 0 1-21.411 8.828 25.5 25.5 0 0 1-5.448-.564l-11.27-11.27-.564-.564c-.188-.188-.376-.376-.376-.564l-.375-.566c-.188-.188-.188-.188-.188-.376a.656.656 0 0 1-.188-.376h-.375c0-.376-.188-.564-.188-.939l-.188-.372v-2.255l.376-.376a3.93 3.93 0 0 1 .751-1.127l12.4-12.4-7.514-7.326-5.637-6.76 3.005-3.005 6.762 5.635 7.326 7.326.376-.188c-.188-.188-.188-.376-.376-.564l-.188-.376-.188-.376v-.188l-.188-.376v-.181l-.188-.376v-2.634l.188-.376.188-.376.188-.564.188-.376.188-.376.188-.376.376-.376.379-.37.376-.376.188-.188.376-.376.376-.376.376-.376.376-.376.188-.188h.188l.376-.376.564-.188.376-.188.564-.376c.376-.188.564-.376.939-.564l.376-.188.376-.188.376-.188.368-.188h4.133l.188.188.751.939 7.7 7.7z"/><path class="c" d="M740.029 6298.206a15.629 15.629 0 0 1-2.442 3.381 20.506 20.506 0 0 1-3.194 2.445 3.755 3.755 0 0 1-2.442.376 5.119 5.119 0 0 1-2.254-1.127l-7.326-7.326-2.442-2.446 6.763-6.763 2.818-.564a6.729 6.729 0 0 0 2.066-.751l8.077 8.077a4.285 4.285 0 0 1 1.127 2.254 9.3 9.3 0 0 1-.751 2.444z"/><path class="d" d="M716.359 6282.614l-6.387-6.387h-2.065l-5.448-6.762 2.818-3.006 6.95 5.635-.188 2.065 4.508 4.508 1.878 1.878z"/><path class="e" d="M740.029 6298.206a15.629 15.629 0 0 1-2.442 3.381 20.506 20.506 0 0 1-3.194 2.445 3.755 3.755 0 0 1-2.442.376 5.119 5.119 0 0 1-2.254-1.127l-7.326-7.326-2.442-2.446 1.315-1.315 9.768 9.768a1.624 1.624 0 0 0 1.127.564h.564l-10.9-10.9 4.884-4.884 11.275 11.276a4.106 4.106 0 0 0 .567-.939 1.242 1.242 0 0 0 .188-1.127 1.624 1.624 0 0 0-.564-1.127l-8.644-8.642a6.729 6.729 0 0 0 2.066-.751l8.077 8.077a4.285 4.285 0 0 1 1.127 2.254 9.3 9.3 0 0 1-.75 2.443z"/><path class="d" d="M740.029 6275.1l-.751-.751-5.26 5.26c-1.315 1.315-3.569.188-5.448-1.5-1.691-1.691-2.818-4.133-1.5-5.448l5.26-5.26-.751-.751-.383-.379h-.376a5.488 5.488 0 0 0-3.757.376c-.376.188-.939.376-1.315.564s-.564.376-.939.564c-.188.188-.376.188-.564.376-.376.376-.939.564-1.315.939a12.871 12.871 0 0 0-3.189 3.19 3.54 3.54 0 0 0-.751 1.691c0 .188-.188.564-.188.751v.939a5.2 5.2 0 0 0 .188 1.691v.188l.188.376v.188c.188.376.188.564.376.751 0 .188.188.376.376.564h-.376l-1.127 1.127-2.066 2.066-13.526 13.527a4.106 4.106 0 0 0-.564.939c0 .188-.188.376-.188.564a.69.69 0 0 1-.188.564v1.314l.188.564c0 .376.188.564.376.939l.188.188a.582.582 0 0 0 .188.376c0 .188.188.376.376.564.188.376.564.564.751.939l.564.564a5.313 5.313 0 0 0 3.945 1.315 5.119 5.119 0 0 0 2.254-1.127l9.58-9.58 1.5-1.315.564-.564 4.884-4.884.376-.376a4.289 4.289 0 0 0 3.757 1.315 5 5 0 0 0 2.254-.564l1.127-.564c3.571-2.63 7.516-9.956 5.262-12.21zm-28.741 25.923a4.084 4.084 0 0 1-5.635 0 1.9 1.9 0 0 1-.751-1.315 3.761 3.761 0 0 1 .939-4.32 4.084 4.084 0 0 1 5.635 0 4.284 4.284 0 0 1-.188 5.635z"/><path class="f" d="M703.774 6302.901l1.878-1.878a4.084 4.084 0 0 1 0-5.635 4.084 4.084 0 0 1 5.635 0l17.47-17.47c-1.691-1.691-2.818-4.133-1.5-5.26l5.072-5.26-.751-.751c-2.254-2.254-9.58 1.691-12.022 5.448a5.651 5.651 0 0 0 .188 6.95l-16.909 16.906a3.9 3.9 0 0 0-.939 2.254 5.839 5.839 0 0 0 1.878 4.696z"/></svg>