<svg xmlns="http://www.w3.org/2000/svg" viewBox="690 6136 61.487 61.487"><defs><style>.a{fill:#3180c1;}.a,.b,.d,.e,.f{fill-rule:evenodd;}.b{fill:#286ba2;}.c{fill:#3d566e;}.d,.h{fill:#95a5a6;}.e{fill:#2c3e50;}.f,.g{fill:#ecf0f1;}</style></defs><g transform="translate(690 6136)"><path class="a" d="M61.487,30.743A30.723,30.723,0,0,1,30.743,61.487a27.14,27.14,0,0,1-8.02-1.146A30.886,30.886,0,0,1,8.975,52.512,31.253,31.253,0,0,1,0,30.743,30.786,30.786,0,0,1,52.512,8.975,30.073,30.073,0,0,1,61.1,26.733,28.489,28.489,0,0,1,61.487,30.743Z"/><path class="b" d="M57.758,26.173A30.723,30.723,0,0,1,27.014,56.916a27.14,27.14,0,0,1-8.02-1.146l-14.7-14.7h0v-1.91h0v-.191h0l.191-.191H8.11V21.208L6.391,19.49,6.2,19.3h0L4.1,17.2h0v-.191h0V15.48a.187.187,0,0,1,.191-.191.187.187,0,0,1,.191-.191.187.187,0,0,1,.191-.191.187.187,0,0,0,.191-.191h.191L26.441,5.168a1.615,1.615,0,0,1,1.337,0l21.387,9.548h.191a.187.187,0,0,1,.191.191l.191.191,7.638,7.065A28.489,28.489,0,0,1,57.758,26.173Z" transform="translate(3.729 4.57)"/><g transform="translate(7.829 8.832)"><rect class="c" width="37.809" height="25.397" transform="translate(4.01 11.028)"/><path class="d" d="M13.1,13.11V11.773a.61.61,0,0,1,.573-.573h10.5a.61.61,0,0,1,.573.573V13.11a.61.61,0,0,1-.573.573h-10.5A.61.61,0,0,1,13.1,13.11Z" transform="translate(4.086 1.355)"/><path class="e" d="M4.1,24.882v-1.91a.61.61,0,0,1,.573-.573H49.547a.506.506,0,0,1,.573.573v1.91a.61.61,0,0,1-.573.573H4.673Q4.1,25.169,4.1,24.882Z" transform="translate(-4.1 11.542)"/><path class="f" d="M8.882,12.4H37.143c.191,0,.191,0,.191-.191a.187.187,0,0,0-.191-.191L23.012,6.1h-.191L8.691,12.02,8.5,12.21C8.691,12.21,8.691,12.4,8.882,12.4Z" transform="translate(-0.098 -3.283)"/><path class="f" d="M5.055,14.316,26.441,4.768a1.631,1.631,0,0,1,1.337,0l21.387,9.548a1.436,1.436,0,0,1,.955,1.337v.955a.506.506,0,0,1-.573.573H4.673a.506.506,0,0,1-.573-.573v-.955A1.436,1.436,0,0,1,5.055,14.316Z" transform="translate(-4.1 -4.625)"/><path class="d" d="M7.4,13.447H40.626L24.013,6Z" transform="translate(-1.099 -3.374)"/><path class="d" d="M5.2,13.11V11.773a.61.61,0,0,1,.573-.573h10.5a.61.61,0,0,1,.573.573V13.11a.61.61,0,0,1-.573.573H5.773A.61.61,0,0,1,5.2,13.11Z" transform="translate(-3.1 1.355)"/><path class="d" d="M21,13.11V11.773a.61.61,0,0,1,.573-.573h10.5a.61.61,0,0,1,.573.573V13.11a.61.61,0,0,1-.573.573h-10.5A.61.61,0,0,1,21,13.11Z" transform="translate(11.271 1.355)"/><g transform="translate(4.01 15.038)"><rect class="g" width="7.638" height="19.095"/><rect class="h" width="0.955" height="19.095" transform="translate(0.764)"/><rect class="h" width="0.955" height="19.095" transform="translate(4.201)"/><rect class="h" width="0.955" height="19.095" transform="translate(2.482)"/><rect class="h" width="0.955" height="19.095" transform="translate(5.92)"/></g><g transform="translate(19.095 15.038)"><rect class="g" width="7.638" height="19.095"/><rect class="h" width="0.955" height="19.095" transform="translate(0.764)"/><rect class="h" width="0.955" height="19.095" transform="translate(4.201)"/><rect class="h" width="0.955" height="19.095" transform="translate(2.482)"/><rect class="h" width="0.955" height="19.095" transform="translate(5.92)"/></g><g transform="translate(34.181 15.038)"><rect class="g" width="7.638" height="19.095"/><rect class="h" width="0.955" height="19.095" transform="translate(0.764)"/><rect class="h" width="0.955" height="19.095" transform="translate(4.201)"/><rect class="h" width="0.955" height="19.095" transform="translate(2.482)"/><rect class="h" width="0.955" height="19.095" transform="translate(5.92)"/></g></g></g></svg>