<svg xmlns="http://www.w3.org/2000/svg" viewBox="691 6022 61.487 61.487"><defs><style>.a{fill:#3180c1;}.a,.b,.d,.e,.f,.i{fill-rule:evenodd;}.b{fill:#286ba2;}.c{fill:#3d566e;}.d{fill:#f1c40f;}.e,.g{fill:#2c3e50;}.f{fill:#3498db;}.h{fill:#ecf0f1;}.i{fill:#dae1e6;}.j{fill:red;}</style></defs><g transform="translate(691 6022)"><path class="a" d="M61.487,30.744h0a17.1,17.1,0,0,1-.382,4.392A30.675,30.675,0,0,1,30.744,61.487h-1.91A30.471,30.471,0,0,1,8.975,52.512,30.91,30.91,0,0,1,0,30.744H0a30.744,30.744,0,0,1,61.487,0Z"/><path class="b" d="M58.1,26.859A30.675,30.675,0,0,1,27.742,53.21h-1.91L4.255,31.633c-.191,0-.191-.191-.382-.382,0-.191-.191-.191-.191-.382a.667.667,0,0,0-.191-.382c0-.191,0-.382-.191-.382V27.622a.187.187,0,0,1,.191-.191.187.187,0,0,1,.191-.191h.573V27.05l-.382-.382V23.994h.382V10.628a.187.187,0,0,1,.191-.191.187.187,0,0,1,.191-.191c.191,0,0-.191.191-.191a.187.187,0,0,1,.191-.191l.191-.191A.187.187,0,0,0,5.4,9.482a.187.187,0,0,0,.191-.191A.187.187,0,0,0,5.782,9.1H39.39a.591.591,0,0,1,.382.191h.382c.191,0,.191,0,.382.191a.591.591,0,0,1,.382.191.667.667,0,0,0,.382.191.591.591,0,0,1,.382.191.187.187,0,0,1,.191.191c.191,0,.191.191.382.191l.191.191c.382.191.573.573.955.955Z" transform="translate(3.001 8.277)"/><g transform="translate(6.324 16.231)"><rect class="c" width="43.537" height="7.829" transform="translate(2.459 16.04)"/><path class="d" d="M50.393,27.213h-4.2A6.216,6.216,0,0,0,41.8,25.3a6.954,6.954,0,0,0-4.392,1.719,6.206,6.206,0,0,0-2.1,4.774v.573H19.267V31.8a6.206,6.206,0,0,0-2.1-4.774A6.049,6.049,0,0,0,12.775,25.3a6.954,6.954,0,0,0-4.392,1.719H3.8V11.364A2.937,2.937,0,0,1,6.664,8.5H33.971a17.25,17.25,0,0,1,5.347.764,7.158,7.158,0,0,1,4.01,3.437,36.986,36.986,0,0,1,2.482,7.447,16.713,16.713,0,0,1,3.055.382A1.572,1.572,0,0,1,50.2,21.676C50.2,24.158,50.393,26.068,50.393,27.213Z" transform="translate(-2.868 -8.5)"/><path class="e" d="M28.222,19.9a5.287,5.287,0,0,0-.191,1.719v.573H11.991v-.573A5.287,5.287,0,0,0,11.8,19.9Z" transform="translate(4.408 1.869)"/><path class="f" d="M18.164,10.2H15.682a.411.411,0,0,0-.382.382V27a.411.411,0,0,0,.382.382h2.482A.411.411,0,0,0,18.546,27V10.773C18.737,10.391,18.546,10.2,18.164,10.2Z" transform="translate(7.592 -6.954)"/><circle class="g" cx="5.347" cy="5.347" r="5.347" transform="translate(33.394 17.95)"/><circle class="g" cx="5.347" cy="5.347" r="5.347" transform="translate(4.56 17.95)"/><path class="f" d="M26.411,16.692H20.682a.411.411,0,0,1-.382-.382V10.582a.411.411,0,0,1,.382-.382H22.4a3.91,3.91,0,0,1,3.819,2.1,7.25,7.25,0,0,1,1.146,3.437C27.556,15.929,27.365,16.692,26.411,16.692Z" transform="translate(12.139 -6.954)"/><circle class="h" cx="2.482" cy="2.482" r="2.482" transform="translate(36.258 20.814)"/><circle class="h" cx="2.482" cy="2.482" r="2.482" transform="translate(7.424 20.814)"/><path class="f" d="M20.664,10.2H18.182a.411.411,0,0,0-.382.382V27a.411.411,0,0,0,.382.382h2.482A.411.411,0,0,0,21.046,27V10.773C21.237,10.391,20.855,10.2,20.664,10.2Z" transform="translate(9.865 -6.954)"/><path class="f" d="M18.02,10.2H10.382a.411.411,0,0,0-.382.382v5.729a.411.411,0,0,0,.382.382H18.02a.411.411,0,0,0,.382-.382V10.582C18.593,10.391,18.4,10.2,18.02,10.2Z" transform="translate(2.771 -6.954)"/><path class="f" d="M12.92,10.2H5.282a.411.411,0,0,0-.382.382v5.729a.411.411,0,0,0,.382.382H12.92a.411.411,0,0,0,.382-.382V10.582A.411.411,0,0,0,12.92,10.2Z" transform="translate(-1.868 -6.954)"/><path class="e" d="M27.91,23.547h1.146c3.055,0,2.482-5.347,1.719-5.347H26a6.206,6.206,0,0,1,2.1,4.774A.7.7,0,0,0,27.91,23.547Z" transform="translate(17.324 0.323)"/><path class="e" d="M5.581,23.547H6.726v-.573a6.206,6.206,0,0,1,2.1-4.774H3.862C3.1,18.391,2.716,23.547,5.581,23.547Z" transform="translate(-3.312 0.323)"/><path class="e" d="M23.9,14.31h0v-.573h0v-.573a.821.821,0,0,1,.764-.764h0a.821.821,0,0,1,.764.764v.573h0v.573h0v.573a.821.821,0,0,1-.764.764h0a.821.821,0,0,1-.764-.764Z" transform="translate(15.414 -4.953)"/><path class="i" d="M29.573,19.173H26.9V16.5h2.482Z" transform="translate(18.142 -1.224)"/><rect class="j" width="1.337" height="2.673" transform="translate(0.55 15.467)"/><rect class="g" width="18.332" height="2.1" transform="translate(3.032 14.131)"/><rect class="g" width="10.311" height="2.1" transform="translate(32.439 14.131)"/></g></g></svg>