<svg xmlns="http://www.w3.org/2000/svg" viewBox="-7 7761 169.385 77.729"><defs><style>.a{fill:#cc092f;}.b{fill:#003a69;}</style></defs><g transform="translate(-7 7761.032)"><path class="a" d="M135.258,28.066c-7.26-.517-1.166-3.888-11.273-5.186-24.62-3.239-40.7,6.219-36.026-2.59,1.424-2.722,1.941-3.239,3.63-6.61C94.179,8.493,94.311,3.7,86.4,1.757,57.113-5.5,5.8,11.606,2.561,12.639c0,0-.775.258-1.3.391-1.3.649.517.391.517.391C14.61,10.05,46.747,2.664,68,3.181c20.215.517,26.7,2.981,18.917,16.2-5.57,9.333-.133,8.034,2.206,7.643,19.566-2.848,37.45-2.848,38.49.133.775,2.464,6.61,2.848,6.736,2.848,3.888.517,6.61,1.557,4.921,4.4-8.293-1.3-19.049,1.815-23.712,5.836-.258.258,0,.258.133.133,7.65-4.146,23.712-5.57,24.236-3.239C144.723,31.3,143.034,28.708,135.258,28.066ZM118.673,41.154c0-.258-.258-.391-.517-.391a.347.347,0,0,0-.391.391c0,.258.258.258.649.391.258,0,.649.133.649.517,0,.517-.391.649-.775.649-.517,0-.907-.133-.907-.649h.258c0,.258.258.391.649.391.258,0,.517,0,.517-.258,0-.391-.391-.391-.649-.517-.391,0-.775-.133-.775-.517a.731.731,0,0,1,.775-.649c.517,0,.775.258.775.649l-.258-.007Zm.775-.524h.391l.649,1.682.649-1.682h.391V42.7h-.258V40.889L120.62,42.7h-.258l-.649-1.815V42.7h-.258l-.007-2.073Z" transform="translate(-0.74 0)"/><path class="b" d="M86.7,592.209l-1.424-8.034H80.742l-.133.391a2.08,2.08,0,0,1,1.682.775l-2.981,8.034c-.391,1.3-.907,2.464-1.557,2.464-.775,0-1.3-1.166-1.557-2.981l-2.073-12.439H72.184L65.19,592.341c-1.04,1.815-2.073,3.372-3.755,3.63v.391h5.054v-.391c-1.557-.517-1.557-1.3-.649-2.722l1.3-2.073h5.445l.517,2.331c.133,1.557,0,2.073-2.073,2.464v.391h9.982V596.1c-1.3-.133-1.424-1.166-.907-2.59l2.59-7.127h.133l1.815,9.975h.517l6.094-9.975h-.133l-.258,6.994c-.133,1.557-.649,2.331-2.073,2.722l-.133.258H95V596.1a1.564,1.564,0,0,1-1.424-1.941l.517-7.643a1.729,1.729,0,0,1,1.815-1.941v-.391H91.631l-4.928,8.02ZM67.779,590l3.63-6.352L72.449,590Zm36.807-5.186c1.424,0,1.682.517,1.815,2.073h.391l.517-2.722H97.976v.391c1.291.258,1.424.517,1.166,1.682l-1.682,7.776c-.258,1.3-.517,1.682-1.948,2.073v.258h9.333l.907-2.981h-.391c-.649,1.3-1.557,2.331-2.981,2.331h-.775c-1.166,0-1.557-.391-1.3-1.557l.649-3.5h2.206c1.04,0,1.424.517,1.424,1.557h.391l.775-3.762h-.391a2.046,2.046,0,0,1-2.073,1.424h-2.073l1.04-5.054,2.331.007Zm14.254,10.757c-.907-1.166-1.424-5.054-2.722-5.445a4.125,4.125,0,0,0,3.113-2.848c.391-1.815-.775-3.113-4.146-3.113h-5.961v.391c1.166.258,1.424.649,1.166,1.682l-1.815,8.293a1.833,1.833,0,0,1-1.815,1.557l-.133.258h5.961l.133-.258c-1.166-.258-1.557-.649-1.3-1.815l.775-3.755c1.166,0,1.557,0,1.941.649.775.907,1.04,3.63,2.073,5.186h3.63l.133-.258a1.924,1.924,0,0,1-1.033-.523Zm-6.61-5.7,1.166-5.054h.775c1.682,0,2.331.907,2.073,2.464-.384,2.066-1.682,2.715-4.014,2.59Zm16.327-5.7h-5.829l-.133.391c1.166.258,1.424.517,1.166,1.682l-1.682,7.776c-.258,1.3-.391,1.682-1.941,2.073v.258h5.829l.133-.258c-1.3-.391-1.424-.649-1.3-1.815l1.682-7.776c.258-1.166.517-1.682,1.941-1.941l.133-.391Zm10.373,9.458a6.682,6.682,0,0,1-4.4,1.941c-2.206,0-4.021-1.557-3.113-5.7.649-3.239,2.464-5.312,4.8-5.312,2.073,0,3.239,1.424,3.372,3.888h.258l1.04-4.537h-.391c-.258.517-.517.649-.907.649-.517,0-1.424-.775-3.239-.775a8.554,8.554,0,0,0-8.167,6.736c-.775,3.63,1.424,6.219,5.186,6.219a7.119,7.119,0,0,0,5.445-2.464l.126-.642Zm24.878-9.458-.133.391c1.3.258,1.424.775,1.04,2.331l-1.166,5.445-5.445-8.167h-3.762v.391c.391,0,.649.258,1.3,1.166l-1.682,8.167c-.391,1.557-2.848,3.888-3.63-.258l-1.682-9.849h-1.682l-5.57,9.458c-.775,1.424-1.682,2.59-2.848,2.848l-.133.258h4.021V596.1c-1.166-.391-1.166-1.04-.517-2.2l1.04-1.557h4.279l.391,1.815c.133,1.166,0,1.557-1.557,1.94l-.133.258h10.108l.133-.258c-1.424-.258-1.682-.649-1.424-1.94l1.557-7.518,6.736,9.849h.517l2.073-9.975a2.138,2.138,0,0,1,2.206-1.94l.133-.391-4.167-.007Zm-20.348,7.253,2.848-5.054.775,5.054ZM15.943,590.394a16.372,16.372,0,0,1-6.61,1.166C2.981,591.56,0,587.413,0,583.393c0-4.8,3.888-8.293,9.333-8.293,2.59,0,3.755.907,4.921.907a1.893,1.893,0,0,0,1.3-.517h.517v4.4h-.517a6.4,6.4,0,0,0-6.094-3.888c-3.5,0-5.445,2.848-5.445,7.644,0,5.054,2.331,6.994,5.57,6.994,1.557,0,2.848-.391,2.848-1.682v-2.331c0-1.04-.517-1.682-1.815-1.941V584.3h7v.391c-1.3.391-1.682.907-1.682,2.464l.007,3.239Zm35.9-3.239h-4.8l-.649,1.557c-.391,1.166-.391,1.682,1.166,2.073v.391H43.285v-.391c1.3-.258,1.815-1.3,2.464-2.722l3.755-9.2h1.941l4.021,9.591c.775,1.682,1.424,2.206,2.59,2.331v.391H51.32v-.391c1.682-.258,1.815-.649,1.3-1.815l-.775-1.815Zm-2.331-5.836-1.941,4.921h3.888Z" transform="translate(0 -534.986)"/><path class="b" d="M302.363,641.213v-.391c1.424-.258,1.682-.649,1.682-1.815v-9.2h-1.424a2.591,2.591,0,0,0-2.848,2.073h-.391l.133-2.981h.391c.133.133.391.133.649.258h9.333c.391,0,1.04,0,1.3-.258h.391l.133,2.981h-.391a2.6,2.6,0,0,0-2.848-2.073h-1.424v9.207c0,1.166.391,1.557,1.682,1.815v.391l-6.366-.007Zm-16.46,0,.258-2.981h-.384a2.912,2.912,0,0,1-2.722,2.331h-.775c-1.424,0-1.815-.391-1.815-1.557v-3.5H282.8a1.639,1.639,0,0,1,1.815,1.557H285v-3.755h-.391c-.258,1.166-.775,1.557-1.815,1.557h-2.331v-5.054h2.464c1.557,0,2.073.517,2.464,2.073h.391v-2.722H275.67v.391c1.424.258,1.682.649,1.682,1.682v7.644c0,1.815-1.557,2.331-2.59,1.424-1.166-1.04-2.59-4.921-4.146-5.186v-.133c1.941-.391,2.722-1.556,2.722-2.855,0-1.682-1.424-2.981-5.186-2.981H261.8v.391c1.424.258,1.682.649,1.682,1.682v8.034c0,1.04-.649,1.424-1.682,1.557v.391h6.352v-.391c-1.166-.133-1.682-.649-1.682-1.682V635.5c1.166,0,1.682,0,2.206.517,1.04.907,2.073,3.63,3.5,5.186l13.73.007Zm-19.433-6.478v-4.921h.907c1.815,0,2.722.908,2.722,2.464C270.1,634.219,268.927,634.994,266.47,634.736Zm143.069,9.849a1.58,1.58,0,0,1,1.557-1.557,1.555,1.555,0,0,1,1.424,1.557,1.473,1.473,0,0,1-1.424,1.557A1.5,1.5,0,0,1,409.539,644.585Zm-.258,0A1.769,1.769,0,0,0,411.1,646.4a1.815,1.815,0,1,0,0-3.63A1.769,1.769,0,0,0,409.281,644.585Zm1.033,1.166h.391v-.907h.391l.517.907H412l-.649-1.04c.391,0,.517-.133.517-.517s-.133-.649-.649-.649h-.907v2.206Zm.391-1.948h.391c.258,0,.517.133.517.391s-.258.258-.517.258H410.7ZM305.476,662.594h.907v-2.206h-.907Zm4.537,0h.907v-2.206h-.907Zm2.59,0h.907v-2.206H312.6Zm1.815-2.2.907,2.206h1.04V660.4h-.782v.649l-.258-.649Zm3.755,0-.517,2.206h.907l.391-1.557h1.682l.391,1.557h1.04l-.517-2.206Zm5.054,2.2h.907v-2.206h-.907Zm1.815-2.2.775,2.206h1.166V660.4h-.907v.649l-.258-.649Zm3.63,0c0,1.557.649,2.332,1.815,2.332,1.424,0,1.815-1.166,1.815-2.206v-.133h-.907v.133c0,.517-.133,1.424-.907,1.424-.517,0-.907-.391-.907-1.557l-.907.007Zm5.054,2.2h.907v-2.206h-.907Zm2.722-2.2L335.8,662.6h1.04l.391-1.557h1.682l.391,1.557h.907l-.517-2.206Zm4.921,0V662.6h3.113v-.908h-2.206v-1.3Zm7.26,2.2h.907v-2.206h-.907Zm2.464-2.2c0,.133.133.391.133.517v1.166a.751.751,0,0,0,.133.516h1.04a.666.666,0,0,1-.258-.516v-1.689l-1.047.007Zm2.722,0V662.6h3.239v-.908h-2.331v-1.3Zm7.127,0a1.15,1.15,0,0,1,.133.649c0,.517-.258.907-.775.907a.958.958,0,0,1-1.04-1.04v-.133h-.907v.133a1.62,1.62,0,0,0,1.815,1.815c1.166,0,1.948-.517,1.948-1.815a.752.752,0,0,0-.133-.517Zm2.59,0c.133,1.557.649,2.332,1.815,2.332s1.815-.775,1.94-2.332h-.907c-.133,1.3-.517,1.557-1.04,1.557-.391,0-.775-.258-.907-1.557Zm5.312,0v.391c0,1.424.649,1.941,1.815,1.941s1.815-.517,1.815-1.941V660.4h-.907v.517c0,.649-.258,1.04-.907,1.04-.517,0-.775-.391-.775-1.04V660.4Zm5.312,2.2h.908v-2.206h-.908Zm2.464-2.2a.77.77,0,0,1,.133.517v1.166c0,.133.133.391.133.516h1.166a1.834,1.834,0,0,1-.391-.516v-1.689l-1.04.007Zm2.59,0c.133,1.557.649,2.332,1.941,2.332,1.424,0,1.815-1.166,1.815-2.206v-.133h-.908v.133c0,.517-.133,1.424-.907,1.424-.517,0-.907-.391-1.04-1.557l-.9.007Zm5.186,0V662.6h3.239v-.908H385.3v-1.3Zm7.127,0c.133.258.258.391.258.649a.888.888,0,0,1-.866.907h-.042a.958.958,0,0,1-1.04-1.04v-.133h-.907v.133a1.687,1.687,0,0,0,1.815,1.815c1.166,0,1.947-.517,1.947-1.815V660.4Z" transform="translate(-243.525 -585.031)"/><path class="b" d="M887.5,1048.407v2.206h.908v-.517h2.073v-.775h-2.073v-.907l-.908-.007Zm4.537,2.206h.907v-2.206h-.907Zm2.59,0h.907v-2.206h-.907Zm1.033-2.206.775,2.206h.907l-.907-2.206Zm1.948,2.206h.775v-2.206h-.775Zm3.239-2.206-.649,2.206h3.371l-.649-2.206h-.907l.516,2.206H901.1l.517-2.206Zm4.4,2.206h.908v-2.206h-.908Zm.908-2.206.907,2.206h.775l-.908-2.206Zm1.947,2.206h.908v-2.206h-.908Zm2.59-2.206c0,.391-.133.908-.133,1.424a1.6,1.6,0,0,0,.133.775h.907v-2.2Zm2.722,0v.258h.908v-.265l-.908.007Zm2.332,2.206h.907v-2.206h-.907Zm3.371-2.206-.649,2.206h3.239l-.649-2.206h-.775l.517,2.206h-1.424l.517-2.206Zm4.272,2.206h.907v-2.206h-.907Zm7.26-2.206v2.206h.907v-.391h.775a.776.776,0,0,1,.775.391h1.04a.947.947,0,0,0-.907-.775c.649-.133.907-.649.907-1.424h-.907v.133c0,.649-.258.908-.908.908h-.775v-1.04l-.907-.007Zm5.187,0v2.206h.907v-.517h2.206v-.775h-2.206v-.907l-.907-.007Zm4.53,0c0,.908.391,1.3,1.3,1.682l.649.133a2.933,2.933,0,0,1,.649.391h1.04c-.133-.517-.391-.775-1.166-1.04l-.517-.258c-.649-.258-.907-.517-.907-.908Zm2.6,0h0Zm2.59,0c0,.391-.133.908-.133,1.424a1.6,1.6,0,0,0,.133.775h.907v-2.2Zm2.722,0a4.326,4.326,0,0,1,.133,1.424v.775h.907v-2.2Zm2.59,2.206h1.04v-2.206h-1.04Zm2.722,0h.907v-2.206h-.907Zm2.59-2.206v2.206h.907v-.391h.775c.517,0,.649.133.775.391h1.04a.859.859,0,0,0-.907-.775c.649-.133.907-.649,1.04-1.424h-1.04v.133c0,.649-.258.908-.907.908h-.775v-1.04l-.907-.007Zm5.186,0a4.753,4.753,0,0,0-.133,1.424v.775h.907v-.775c0-.649.133-1.04.133-1.424Zm2.722,0v.258H965v-.265l-.907.007Zm2.331,0v2.206h.908v-.517h2.206v-.775h-2.206v-.907l-.908-.007Zm4.663,0a1.668,1.668,0,0,0,1.166,1.682l.649.133a2.924,2.924,0,0,1,.649.391h1.166c-.133-.517-.517-.775-1.166-1.04l-.649-.258c-.649-.258-.907-.517-.907-.908Zm2.464,0h0Zm-60.129,2.206h0Zm50.67,0h0Z" transform="translate(-825.549 -975.248)"/><path class="b" d="M888.407,1025.989v-.775h2.206v-.775H887.5V1026l.908-.007Zm3.63,0h.907v-1.557h-.907Zm3.5,0v-.132l.133.132h.775l-.649-1.557h-1.166v1.557Zm2.073,0h.775v-1.557h-.775Zm4.014,0,.258-.775.133.775h.907l-.391-1.557h-1.291l-.391,1.557Zm4.537,0v0h.775l-.517-1.557h-1.166v1.557Zm1.947,0h.908v-1.557h-.908Zm3.5,0c.133-.775.516-.907.907-.907.649-.133.907.391.907.907h.908a1.58,1.58,0,0,0-1.815-1.682c-1.04,0-1.557.516-1.815,1.682Zm4.146,0h.907v-1.557h-.907Zm4.146,0,.133-.775.258.775h.775l-.391-1.557H919.5l-.391,1.557Zm3.5,0h.907v-1.557h-.907Zm8.167,0v-.775h.775c.649,0,.908.258.908.775h.907c0-1.166-.649-1.557-1.424-1.557h-2.073v1.557Zm5.186,0v-.775h2.332v-.775h-3.239V1026l.907-.007Zm4.663,0v-.132a.775.775,0,1,1,1.55,0v.132H944v-.132c0-.649-.259-1.557-1.682-1.557a1.716,1.716,0,0,0-1.948,1.682l1.04.007Zm5.054,0c.258-.775.517-.907.907-.907s.775.133.907.907h1.04a1.841,1.841,0,0,0-1.941-1.682c-.908,0-1.557.516-1.815,1.682Zm4.4,0h1.04v-1.557h-1.04Zm2.722,0h.907v-1.557h-.907Zm3.5,0v-.775h.775c.649,0,.907.258.907.775h1.04a1.425,1.425,0,0,0-1.557-1.557H956.18v1.557Zm5.186,0c.133-.775.391-.907.908-.907.649-.133.775.391.907.907H965a1.58,1.58,0,0,0-1.815-1.682,1.661,1.661,0,0,0-1.815,1.682Zm5.054,0v-.775h2.331v-.775H966.42V1026l.908-.007Zm4.663,0v-.132a.68.68,0,0,1,.775-.775c.649,0,.775.258.775.775v.132h1.04v-.132c0-.649-.258-1.557-1.682-1.557a1.606,1.606,0,0,0-1.815,1.682l.907.007Z" transform="translate(-825.549 -952.83)"/></g></svg>